<svg width="88" height="88" viewBox="0 0 88 88" fill="none" xmlns="http://www.w3.org/2000/svg">
<g clip-path="url(#clip0_35_1332)">
<path d="M76.004 43.2147H80C80 41.8591 79.82 40.5391 79.604 39.1835H75.644C75.572 38.6484 75.464 38.1133 75.356 37.5781H79.352C79.064 36.1868 78.632 34.8669 78.164 33.5469H74.24C74.06 33.0118 73.88 32.4767 73.664 31.9416H77.516C76.94 30.5503 76.22 29.2303 75.428 27.9104H71.648C71.36 27.3752 71.036 26.8044 70.676 26.305H74.42C73.412 24.9137 72.26 23.5937 71.036 22.3095H67.544C67.004 21.7743 66.464 21.2036 65.924 20.7041H69.38C67.688 19.2058 65.816 17.8858 63.8 16.7086H60.668C59.732 16.1378 58.688 15.567 57.644 15.1032H60.668C56.24 13.1411 51.308 11.9639 46.088 11.9639H43.748C25.892 11.9995 11.456 26.3407 11.456 43.9995C11.456 49.3507 12.752 54.3808 15.092 58.8044C15.668 59.946 16.352 61.0163 17.072 62.0508C19.376 65.4042 22.256 68.2582 25.604 70.5057C26.504 71.1121 27.44 71.6829 28.412 72.1824C32.948 74.6082 38.204 75.9995 43.712 75.9995H46.052C51.272 75.9995 56.24 74.858 60.632 72.8959H57.608C58.652 72.3964 59.624 71.8613 60.596 71.2905H63.764C65.744 70.1133 67.616 68.7933 69.344 67.2593H65.888C66.428 66.7599 66.968 66.2247 67.508 65.6539H71.036C72.26 64.4053 73.376 63.0497 74.42 61.6227H70.676C71.036 61.0876 71.36 60.5882 71.648 60.0174H75.428C76.256 58.7331 76.94 57.3775 77.516 55.9862H73.664C73.88 55.451 74.096 54.9159 74.24 54.3808H78.164C78.632 53.0965 79.064 51.7409 79.352 50.3496H75.356C75.5 49.8145 75.536 49.2794 75.644 48.7442H79.604C79.784 47.4243 79.964 46.0687 80 44.713H76.004V43.1077V43.2147ZM72.692 44.8201C72.692 44.8201 72.692 44.9271 72.692 44.9984C72.656 46.2114 72.548 47.3886 72.332 48.5659C72.332 48.6729 72.332 48.7442 72.332 48.8513C72.332 49.0296 72.26 49.1723 72.224 49.3507C72.188 49.5648 72.152 49.7788 72.116 49.9929C72.116 50.1355 72.08 50.2783 72.044 50.4209C72.008 50.5993 71.9 50.7777 71.864 50.9917C71.576 52.1333 71.216 53.2392 70.82 54.3095C70.82 54.3451 70.82 54.4165 70.784 54.4522C70.784 54.5235 70.748 54.5592 70.712 54.6305C70.604 54.9159 70.46 55.237 70.352 55.5224C70.28 55.7008 70.208 55.8791 70.136 56.0218C70.064 56.2002 69.956 56.3429 69.848 56.5213C69.344 57.5202 68.84 58.4834 68.228 59.4109C68.084 59.625 68.012 59.839 67.868 60.0531C67.472 60.5882 67.076 61.1233 66.644 61.6584C66.608 61.7298 66.536 61.7654 66.5 61.8368C66.104 62.3362 65.672 62.8 65.24 63.2994C65.024 63.5135 64.844 63.7632 64.628 63.9772C63.692 64.9405 62.684 65.8323 61.64 66.6528C61.388 66.8669 61.136 67.1166 60.848 67.295C60.704 67.402 60.524 67.4733 60.344 67.5804C59.372 68.2582 58.364 68.8646 57.32 69.3998C57.032 69.5425 56.744 69.6852 56.42 69.8279C55.448 70.2916 54.476 70.7197 53.432 71.0765C53.252 71.1478 53.072 71.2548 52.892 71.2905C52.748 71.3262 52.604 71.3619 52.496 71.3975C52.316 71.4689 52.136 71.5046 51.956 71.5402C51.236 71.7543 50.516 71.9327 49.76 72.111C49.616 72.111 49.472 72.1824 49.292 72.218C48.464 72.3964 47.6 72.5034 46.7 72.6105C46.664 72.6105 46.628 72.6105 46.592 72.6105C45.62 72.7175 44.648 72.7888 43.64 72.7888C42.632 72.7888 41.66 72.7175 40.688 72.6105C39.788 72.5034 38.852 72.3607 37.988 72.218C37.88 72.218 37.772 72.1824 37.664 72.1467C36.872 71.9683 36.116 71.79 35.36 71.5759C35.216 71.5402 35.036 71.4689 34.892 71.4332C34.748 71.3975 34.604 71.3619 34.46 71.3262C34.28 71.2548 34.1 71.1478 33.884 71.0765C32.948 70.7554 32.048 70.363 31.148 69.9349C30.932 69.8279 30.68 69.7565 30.464 69.6495C29.492 69.15 28.52 68.6149 27.62 68.0085C27.26 67.7944 26.9 67.5447 26.576 67.295C25.928 66.7955 25.28 66.2961 24.632 65.6896C23.192 64.4767 21.932 63.1211 20.78 61.6584C20.6 61.4087 20.384 61.1233 20.204 60.8736C19.988 60.6238 19.772 60.3385 19.592 60.0531C18.728 58.8044 17.972 57.4131 17.324 56.0218C17.216 55.7721 17.108 55.4867 17 55.237C17 55.237 16.856 54.8446 16.748 54.6305C16.748 54.5592 16.676 54.4878 16.676 54.4165C16.676 54.3808 16.676 54.3095 16.64 54.2738C16.208 53.2036 15.884 52.0976 15.596 50.9561C15.56 50.7777 15.452 50.5993 15.416 50.3853C15.416 50.2426 15.38 50.0999 15.344 49.9572C15.308 49.7431 15.272 49.5291 15.236 49.315C15.236 49.1367 15.164 48.994 15.128 48.8156C15.128 48.7086 15.128 48.6372 15.128 48.5302C14.948 47.3529 14.84 46.1757 14.768 44.9628C14.768 44.8914 14.768 44.8557 14.768 44.7844C14.768 44.5347 14.768 44.2493 14.768 43.9639C14.768 43.6785 14.768 43.4287 14.768 43.179C14.768 42.4655 14.804 41.7877 14.876 41.0742C14.876 40.9672 14.876 40.8959 14.876 40.7888C14.948 40.218 15.02 39.6829 15.092 39.1478C15.128 38.8624 15.2 38.577 15.272 38.2916C15.272 38.1846 15.308 38.0776 15.344 37.9706C15.344 37.8279 15.416 37.6852 15.452 37.5425C15.452 37.3998 15.56 37.2571 15.596 37.1144C16.028 35.402 16.568 33.761 17.288 32.227C17.324 32.1199 17.36 32.0129 17.396 31.9416C17.432 31.8345 17.504 31.7632 17.576 31.6562C18.152 30.4432 18.8 29.3017 19.52 28.1958C19.556 28.1244 19.592 28.0174 19.664 27.946C20.06 27.4109 20.456 26.8401 20.888 26.3407C20.924 26.2693 20.996 26.2337 21.032 26.198C21.464 25.6272 21.968 25.0921 22.436 24.5926C22.58 24.4499 22.688 24.3072 22.832 24.1645C23.804 23.1657 24.848 22.2381 25.928 21.3819C26.18 21.1679 26.432 20.9538 26.684 20.7398C26.828 20.6328 27.008 20.5614 27.188 20.4544C28.16 19.7766 29.168 19.1701 30.212 18.5993C30.464 18.4923 30.68 18.3853 30.932 18.2426C31.976 17.7431 33.056 17.2794 34.172 16.8869C34.28 16.8513 34.424 16.7799 34.532 16.7442C34.64 16.7086 34.748 16.6729 34.856 16.6372C35.144 16.5659 35.396 16.4589 35.684 16.3875C36.368 16.1735 37.052 15.9951 37.772 15.8524C37.88 15.8524 38.024 15.8167 38.132 15.781C39.968 15.4243 41.84 15.2102 43.784 15.2102C45.728 15.2102 47.672 15.4243 49.544 15.781C49.616 15.781 49.688 15.781 49.76 15.8167C50.552 15.9951 51.38 16.1735 52.136 16.4232C52.28 16.4589 52.46 16.5302 52.604 16.5659C52.784 16.6015 52.928 16.6729 53.108 16.7086C53.288 16.7799 53.468 16.8869 53.648 16.9226C54.656 17.2794 55.664 17.7075 56.6 18.1712C56.852 18.3139 57.14 18.4209 57.392 18.5636C58.436 19.0988 59.444 19.7409 60.38 20.383C60.524 20.4901 60.704 20.5614 60.884 20.6684C61.136 20.8825 61.388 21.0965 61.64 21.3106C62.756 22.1668 63.764 23.0943 64.736 24.0932C64.88 24.2359 64.988 24.3786 65.132 24.5213C65.6 25.0564 66.104 25.5915 66.536 26.1266C66.572 26.198 66.644 26.2337 66.68 26.2693C67.112 26.8044 67.508 27.3396 67.904 27.8747C67.94 27.946 67.976 28.0531 68.048 28.1244C68.768 29.2303 69.416 30.4076 69.992 31.5848C70.028 31.6918 70.1 31.7632 70.172 31.8702C70.208 31.9772 70.244 32.0843 70.28 32.1556C71 33.7253 71.54 35.3663 71.972 37.043C71.972 37.1857 72.08 37.3284 72.116 37.4711C72.152 37.6138 72.188 37.7565 72.224 37.8992C72.224 38.0062 72.26 38.1133 72.296 38.2203C72.368 38.5057 72.404 38.7554 72.476 39.0765C72.548 39.6116 72.62 40.1824 72.692 40.7175C72.692 40.8245 72.692 40.8959 72.692 41.0029C72.764 41.6807 72.8 42.3942 72.8 43.1077C72.8 43.3574 72.8 43.6428 72.8 43.8925C72.8 44.1422 72.8 44.4276 72.8 44.713L72.692 44.8201Z" fill="#186CE8"/>
<path d="M72.728 44.0002C72.728 44.25 72.728 44.5354 72.728 44.8207C72.728 46.1764 72.548 47.532 72.332 48.852C72.26 49.3871 72.152 49.9222 72.044 50.4573C71.72 51.8486 71.288 53.1686 70.784 54.4885C70.604 55.0236 70.352 55.5588 70.136 56.0939C69.488 57.4852 68.732 58.8408 67.868 60.1251C67.472 60.6602 67.076 61.1953 66.644 61.7304C65.492 63.1931 64.232 64.5487 62.792 65.7617C62.18 66.3325 61.532 66.8676 60.848 67.367C58.472 69.0794 55.808 70.435 52.964 71.3982C50.048 72.3614 46.988 72.8966 43.748 72.8966C40.508 72.8966 37.448 72.3614 34.568 71.3982C33.2 70.9345 31.868 70.3993 30.572 69.7572C29.6 69.2578 28.628 68.7226 27.728 68.1162C27.368 67.9021 27.008 67.6524 26.684 67.4027C26.036 66.9032 25.388 66.4038 24.74 65.7973C23.3 64.5844 22.04 63.2288 20.888 61.7661C20.708 61.5164 20.492 61.231 20.312 60.9813C20.096 60.7316 19.88 60.4462 19.7 60.1608C18.836 58.9122 18.08 57.5209 17.432 56.1296C17.324 55.8798 17.216 55.5944 17.108 55.3447C16.964 55.095 16.892 54.8096 16.784 54.5242C16.244 53.2399 15.848 51.8843 15.524 50.493C15.38 49.9579 15.308 49.4584 15.236 48.8876C15.02 47.6034 14.876 46.2121 14.84 44.8564C14.84 44.6067 14.84 44.3213 14.84 44.0359C14.84 43.7505 14.84 43.5008 14.84 43.2511C14.84 41.8954 15.02 40.5398 15.2 39.2199C15.308 38.6847 15.38 38.1496 15.524 37.6145C15.848 36.2232 16.28 34.9032 16.784 33.5833C16.964 33.0482 17.18 32.5131 17.432 31.9779C18.08 30.5866 18.836 29.231 19.7 27.9467C20.096 27.4116 20.492 26.8408 20.924 26.3414C22.076 24.8787 23.336 23.5588 24.74 22.3458C25.352 21.775 26 21.2399 26.72 20.7405C29.06 19.0638 31.688 17.7082 34.532 16.7449C37.448 15.7461 40.544 15.2109 43.784 15.2109C47.024 15.2109 50.192 15.7461 53.108 16.7449C55.916 17.6725 58.544 19.0638 60.884 20.7405C61.568 21.2756 62.216 21.775 62.864 22.3458C64.268 23.5588 65.564 24.8787 66.68 26.3414C67.112 26.8765 67.508 27.4116 67.904 27.9467C68.768 29.1953 69.524 30.5866 70.172 31.9779C70.424 32.5131 70.64 33.0125 70.82 33.5833C71.36 34.8676 71.756 36.2232 72.08 37.6145C72.224 38.1496 72.296 38.6491 72.404 39.2199C72.584 40.5041 72.764 41.8954 72.764 43.2511C72.764 43.5008 72.764 43.7862 72.764 44.0359L72.728 44.0002Z" fill="white"/>
<path d="M30.896 60.8386L21.536 72.1475L12.14 60.8386H15.596C16.604 60.8386 17.396 60.0538 17.396 59.0549V50.6357H25.568V59.0549C25.568 60.0538 26.396 60.8386 27.368 60.8386H30.896Z" fill="#80AEF3"/>
<path d="M34.748 59.055C34.748 59.055 34.604 58.7696 34.496 58.6626C33.92 57.8064 32.984 57.2713 31.904 57.2713H29.168V50.172C29.168 49.3515 28.844 48.638 28.34 48.0672C27.764 47.4608 26.972 47.0684 26.072 47.0684H16.928C16.028 47.0684 15.2 47.4608 14.624 48.0672C14.12 48.638 13.796 49.3515 13.796 50.172V57.2713H11.168C9.94401 57.2713 8.82801 57.9491 8.32401 59.055C7.78401 60.1609 7.96401 61.4095 8.72001 62.337L19.124 74.8588C19.7 75.5723 20.6 76.0004 21.536 76.0004C22.472 76.0004 23.336 75.5723 23.948 74.8588L26.288 72.0048L28.628 69.1865L30.788 66.5823L32.264 64.8342L34.316 62.337C34.784 61.7662 35.036 61.1241 35.036 60.4106C35.036 59.9468 34.964 59.4831 34.748 59.055ZM26.144 66.5823L25.496 67.3671L23.192 70.1497L21.536 72.1475L12.14 60.8387H15.596C16.424 60.8387 17.108 60.3036 17.324 59.5544C17.36 59.4117 17.396 59.2334 17.396 59.055V50.6358H25.568V59.055C25.568 59.5901 25.82 60.0539 26.18 60.4106C26.504 60.6603 26.9 60.8387 27.368 60.8387H30.896L27.584 64.8342L26.144 66.5823Z" fill="#186CE8"/>
<path d="M52.64 50.5642C52.64 45.3201 48.14 43.358 44.864 41.931L44.036 41.5742C40.4 40.0046 38.924 39.2197 38.924 37.6144C38.924 35.3669 41.12 33.5118 43.82 33.5118C45.368 33.5118 46.772 34.0826 47.708 35.1172C48.608 36.116 50.12 36.1874 51.128 35.2955C52.136 34.4037 52.208 32.8697 51.308 31.9065C49.868 30.3368 47.924 29.3022 45.8 28.9098V26.4839C45.8 25.164 44.72 24.0938 43.388 24.0938C42.056 24.0938 40.976 25.164 40.976 26.4839V29.1595C37.016 30.3011 34.136 33.6188 34.136 37.6144C34.136 42.5374 38.384 44.3568 42.164 45.9979L42.956 46.3546C47.168 48.174 47.816 49.1016 47.816 50.5999C47.816 52.8474 45.62 54.7024 42.92 54.7024C41.12 54.7024 39.464 53.8463 38.6 52.4906C37.88 51.349 36.404 51.028 35.252 51.7058C34.1 52.4193 33.776 53.8819 34.46 55.0235C35.864 57.2353 38.24 58.7337 40.94 59.2331V61.6946C40.94 63.0146 42.02 64.0848 43.352 64.0848C44.684 64.0848 45.764 63.0146 45.764 61.6946V59.0191C49.724 57.8775 52.604 54.5597 52.604 50.5642H52.64Z" fill="#186CE8"/>
</g>
<defs>
<clipPath id="clip0_35_1332">
<rect width="72" height="64" fill="white" transform="translate(8 12)"/>
</clipPath>
</defs>
</svg>
