<svg width="88" height="88" viewBox="0 0 88 88" fill="none" xmlns="http://www.w3.org/2000/svg">
<path d="M63.0866 11.5076H15.2441C14.5655 11.5076 14 12.0758 14 12.7576C14 13.4394 14.5655 14.0076 15.2441 14.0076H61.0131C60.5984 15.8258 60.9 18.2122 62.4834 19.6894C64.7832 21.8106 68.8172 22.2273 69.7597 20.6364C71.1169 18.4394 65.4241 11.4697 63.0866 11.4697V11.5076Z" fill="#186CE8"/>
<path d="M62.882 72.9087C62.8066 73.439 62.505 73.8935 62.0526 74.1966C61.6379 74.4996 61.0724 74.5753 60.5823 74.4996C60.0545 74.386 59.602 74.0829 59.3004 73.6663L52.4766 63.5905C51.3455 61.8481 50.5915 60.4844 50.5161 60.1057L49.0081 51.7344C48.8573 50.8253 48.0656 50.1814 47.1607 50.1814C46.2559 50.1814 45.4642 50.8253 45.3134 51.7344L40.827 76.5829C40.6385 77.6435 39.6582 78.4011 38.5272 78.1738C38.0371 78.0981 37.547 77.795 37.2454 77.3405C36.9438 76.9238 36.8307 76.3935 36.9438 75.8632L41.5056 50.4466C41.7695 48.9314 40.8647 44.2723 40.8647 44.1966C39.9976 40.2572 38.5649 33.8178 38.4895 33.136C38.1502 31.1284 35.775 30.5223 29.9691 29.1966C28.3103 28.8178 26.6137 28.439 25.7466 28.1359C24.7287 27.7572 23.673 26.6966 23.5222 26.3556C23.0321 23.8178 21.1848 15.1814 21.1848 15.1814C21.1094 14.8405 21.1848 14.4238 21.3733 14.1208C21.5995 13.8178 21.9011 13.5905 22.2781 13.5147C22.6551 13.439 23.0321 13.5147 23.3714 13.742C23.673 13.9314 23.8992 14.2723 23.9369 14.5753C25.6712 24.3481 25.8974 24.5753 26.3875 25.0678C26.8022 25.4844 27.33 26.0147 36.1898 27.9466C37.0569 28.136 37.9617 27.6814 38.301 26.8481C39.0173 25.2193 40.4123 24.045 42.1088 23.7041C43.5037 23.439 44.8987 23.7041 46.0674 24.4996C47.2361 25.2572 48.0279 26.4693 48.3295 27.8329L51.6471 44.4238C51.9111 45.636 52.175 46.9238 52.2881 47.3784L54.437 59.386C54.4873 59.689 57.2018 63.7041 62.5804 71.4314C62.882 71.8481 62.9951 72.3784 62.882 72.9087Z" fill="white"/>
<path d="M65.7096 69.2729C65.7096 69.2729 59.3381 60.1062 58.094 58.3259L56.0205 46.6971C55.9451 46.2047 55.6435 44.8789 55.3795 43.6289L52.0619 27.0759C51.5717 24.7274 50.2145 22.6819 48.1787 21.3183C46.1805 19.9926 43.7676 19.5001 41.4302 19.9926C39.0173 20.485 36.9438 21.9244 35.6242 23.9319C32.5328 23.2501 30.3084 22.6819 29.2905 22.341C28.9512 20.8259 28.2726 17.1895 27.707 13.8941C27.4054 12.5304 26.6137 11.3562 25.4827 10.5607C24.314 9.80316 22.919 9.53801 21.5618 9.80316C20.2423 10.0683 19.0735 10.8638 18.2818 12.038C17.5278 13.1744 17.2639 14.5759 17.5278 15.9774C17.5278 15.9774 19.3751 24.5759 19.8652 27.1138C20.2423 28.9698 22.6551 31.0153 24.5402 31.6971C25.6335 32.0759 27.33 32.4547 29.1774 32.8713C30.9493 33.288 33.8146 33.9319 34.9079 34.3865C35.398 36.8486 37.0192 44.0835 37.2077 44.9547C37.5093 46.4698 37.8863 49.1971 37.8109 49.7653L33.2491 75.1819C32.9852 76.6971 33.3245 78.2501 34.1916 79.538C35.0587 80.788 36.3783 81.6592 37.924 81.9244C38.2633 81.9622 38.6026 82.0001 38.9419 82.0001C41.6564 82.0001 44.107 80.0304 44.5971 77.2653L47.3115 62.1138C47.7262 63.0607 48.4426 64.235 49.3851 65.6744L56.209 75.788C58.0186 78.4395 61.6002 79.1213 64.2016 77.341C65.4834 76.4698 66.3505 75.1441 66.6144 73.6289C66.916 72.1138 66.6144 70.5607 65.7473 69.2729H65.7096ZM62.882 72.9092C62.8066 73.4395 62.505 73.8941 62.0526 74.1971C61.6379 74.5001 61.0724 74.5759 60.5823 74.5001C60.0545 74.3865 59.6021 74.0835 59.3004 73.6668L52.4766 63.591C51.3455 61.8486 50.5915 60.485 50.5161 60.1062L49.0081 51.735C48.8573 50.8259 48.0656 50.1819 47.1607 50.1819C46.2559 50.1819 45.4642 50.8259 45.3134 51.735L40.827 76.5835C40.6385 77.6441 39.6582 78.4016 38.5272 78.1744C38.0371 78.0986 37.547 77.7956 37.2454 77.341C36.9438 76.9244 36.8307 76.3941 36.9438 75.8638L41.5056 50.4471C41.7695 48.9319 40.8647 44.2729 40.8647 44.1971C39.9976 40.2577 38.5649 33.8183 38.4895 33.1365C38.1502 31.1289 35.775 30.5229 29.9691 29.1971C28.3103 28.8183 26.6137 28.4395 25.7466 28.1365C24.7287 27.7577 23.673 26.6971 23.5222 26.3562C23.0321 23.8183 21.1848 15.1819 21.1848 15.1819C21.1094 14.841 21.1848 14.4244 21.3733 14.1213C21.5995 13.8183 21.9011 13.591 22.2781 13.5153C22.6551 13.4395 23.0321 13.5153 23.3714 13.7426C23.673 13.9319 23.8992 14.2729 23.9369 14.5759C25.6712 24.3486 25.8974 24.5759 26.3875 25.0683C26.8022 25.485 27.33 26.0153 36.1898 27.9471C37.0569 28.1365 37.9617 27.6819 38.301 26.8486C39.0173 25.2198 40.4123 24.0456 42.1088 23.7047C43.5037 23.4395 44.8987 23.7047 46.0674 24.5001C47.2361 25.2577 48.0279 26.4698 48.3295 27.8335L51.6471 44.4244C51.9111 45.6365 52.175 46.9244 52.2881 47.3789L54.437 59.3865C54.4873 59.6895 57.2018 63.7047 62.5804 71.4319C62.882 71.8486 62.9951 72.3789 62.882 72.9092Z" fill="#186CE8"/>
<path d="M40.5254 22.1517C43.6486 22.1517 46.1805 19.6079 46.1805 16.4699C46.1805 13.3319 43.6486 10.7881 40.5254 10.7881C37.4021 10.7881 34.8702 13.3319 34.8702 16.4699C34.8702 19.6079 37.4021 22.1517 40.5254 22.1517Z" fill="white"/>
<path d="M40.5254 7C35.3227 7 31.1002 11.2424 31.1002 16.4697C31.1002 21.697 35.3227 25.9394 40.5254 25.9394C45.7281 25.9394 49.9506 21.697 49.9506 16.4697C49.9506 11.2424 45.7281 7 40.5254 7ZM40.5254 22.1515C37.3962 22.1515 34.8703 19.6136 34.8703 16.4697C34.8703 13.3258 37.3962 10.7879 40.5254 10.7879C43.6546 10.7879 46.1805 13.3258 46.1805 16.4697C46.1805 19.6136 43.6169 22.1515 40.5254 22.1515Z" fill="#186CE8"/>
</svg>
