<svg width="16" height="16" viewBox="0 0 16 16" fill="none" xmlns="http://www.w3.org/2000/svg">
<g clip-path="url(#clip0_252_803)">
<path d="M7.99331 1.33301C4.31331 1.33301 1.33331 4.31967 1.33331 7.99967C1.33331 11.6797 4.31331 14.6663 7.99331 14.6663C11.68 14.6663 14.6666 11.6797 14.6666 7.99967C14.6666 4.31967 11.68 1.33301 7.99331 1.33301ZM12.6133 5.33301H10.6466C10.4333 4.49967 10.1266 3.69967 9.72665 2.95967C10.9533 3.37967 11.9733 4.23301 12.6133 5.33301ZM7.99998 2.69301C8.55331 3.49301 8.98665 4.37967 9.27331 5.33301H6.72665C7.01331 4.37967 7.44665 3.49301 7.99998 2.69301ZM2.83998 9.33301C2.73331 8.90634 2.66665 8.45967 2.66665 7.99967C2.66665 7.53967 2.73331 7.09301 2.83998 6.66634H5.09331C5.03998 7.10634 4.99998 7.54634 4.99998 7.99967C4.99998 8.45301 5.03998 8.89301 5.09331 9.33301H2.83998ZM3.38665 10.6663H5.35331C5.56665 11.4997 5.87331 12.2997 6.27331 13.0397C5.04665 12.6197 4.02665 11.773 3.38665 10.6663ZM5.35331 5.33301H3.38665C4.02665 4.22634 5.04665 3.37967 6.27331 2.95967C5.87331 3.69967 5.56665 4.49967 5.35331 5.33301ZM7.99998 13.3063C7.44665 12.5063 7.01331 11.6197 6.72665 10.6663H9.27331C8.98665 11.6197 8.55331 12.5063 7.99998 13.3063ZM9.55998 9.33301H6.43998C6.37998 8.89301 6.33331 8.45301 6.33331 7.99967C6.33331 7.54634 6.37998 7.09967 6.43998 6.66634H9.55998C9.61998 7.09967 9.66665 7.54634 9.66665 7.99967C9.66665 8.45301 9.61998 8.89301 9.55998 9.33301ZM9.72665 13.0397C10.1266 12.2997 10.4333 11.4997 10.6466 10.6663H12.6133C11.9733 11.7663 10.9533 12.6197 9.72665 13.0397ZM10.9066 9.33301C10.96 8.89301 11 8.45301 11 7.99967C11 7.54634 10.96 7.10634 10.9066 6.66634H13.16C13.2666 7.09301 13.3333 7.53967 13.3333 7.99967C13.3333 8.45967 13.2666 8.90634 13.16 9.33301H10.9066Z" fill="#041B3C"/>
</g>
<defs>
<clipPath id="clip0_252_803">
<rect width="16" height="16" fill="white"/>
</clipPath>
</defs>
</svg>
