<svg width="88" height="88" viewBox="0 0 88 88" fill="none" xmlns="http://www.w3.org/2000/svg">
<g clip-path="url(#clip0_36_1862)">
<path d="M64.0553 46.7193C63.3518 46.9351 62.5779 46.6833 62.1558 46.0718C61.7337 45.4603 61.6985 44.6329 62.0854 44.0214C63.6332 41.5754 63.5276 40.748 62.8241 40.0646C61.804 39.1293 60.2211 39.8847 58.7437 40.7121C58.7437 40.7121 58.4623 40.8919 58.4271 40.8919C57.6884 41.2876 56.7739 41.1078 56.2462 40.4603C55.7186 39.8128 55.6834 38.8775 56.2111 38.1941C57.9347 35.9279 58.8141 34.3811 57.9698 33.4819C56.7387 32.2229 54.3467 33.8056 53.4322 34.7049C52.7286 35.3883 51.6382 35.3883 50.9347 34.7049C50.2663 33.9854 50.2663 32.8703 50.9347 32.1509L62.8593 20.0646C63.3166 19.6329 63.5628 19.0214 63.5628 18.3739C63.5628 17.7265 63.3166 17.1509 62.8945 16.6833C62.4372 16.2157 61.8744 15.9639 61.2412 15.9639C60.608 15.9639 60.0452 16.2157 59.5879 16.6473L38.4121 38.5898C37.9196 39.0934 37.1457 39.2732 36.5126 38.9854C35.8442 38.6977 35.4221 38.0502 35.4221 37.3308C35.3869 33.266 31.799 26.7912 28.4221 24.7768C26.9095 23.8775 26.1357 24.2732 25.8894 24.4171C24.5879 25.1365 25.1859 27.1869 26.9095 31.1797C28 33.7337 29.0201 36.1437 28.598 38.1221C28.0352 40.82 27.6131 49.0574 27.4724 52.8703L42.0352 68.3739C44.2513 67.2948 49.2462 64.8128 52.3769 62.6905C55.4372 59.7768 65.1457 49.7049 65.2513 49.597C66.8693 47.9423 66.4472 47.2948 66.1658 46.8991C65.7085 46.2516 64.7236 46.3596 64.0201 46.5754L64.0553 46.7193Z" fill="white"/>
<path d="M69.0854 44.9573C68.4171 44.022 67.5377 43.3745 66.4472 43.0868C67.01 41.3242 67.1156 39.2019 65.1809 37.4033C64.0201 36.3242 62.7889 35.9645 61.5578 36.0364C62.0854 34.3817 62.0151 32.5832 60.4673 30.9645C59.8693 30.353 59.1658 29.9213 58.4271 29.7055L65.3919 22.6551C66.5176 21.54 67.1156 20.0292 67.1156 18.4105C67.1156 16.8278 66.5176 15.317 65.4271 14.1659C64.3367 13.0148 62.8593 12.4033 61.3115 12.4033C59.9045 12.4753 58.2864 13.0148 57.1608 14.1299L38.3769 33.5904C37.0402 28.9141 33.6985 23.8062 30.2512 21.7199C27.5779 20.1012 25.5025 20.6048 24.2713 21.3242C19.9447 23.7343 22.1608 28.9141 23.7789 32.6911C24.4824 34.3458 25.4321 36.576 25.2563 37.4393C24.4472 41.2163 24.0603 53.0868 24.0251 53.5904C24.0251 54.058 24.201 54.5616 24.5176 54.8853L40.4522 71.8638C40.804 72.2235 41.2613 72.4033 41.7186 72.4033C41.9648 72.4033 42.211 72.3673 42.4573 72.2594C42.7739 72.1156 50.0904 68.7343 54.6633 65.6048C58.005 62.4753 67.4673 52.6192 67.8543 52.2235C71.0904 48.9501 70.0703 46.2522 69.1558 44.9213L69.0854 44.9573ZM65.2864 49.7055C65.2864 49.7055 55.4723 59.8853 52.412 62.799C49.2814 64.9213 44.2864 67.4033 42.0703 68.4825L27.5075 52.9789C27.6482 49.1659 28.0352 40.8925 28.6332 38.2307C29.0553 36.2522 28.0352 33.8422 26.9447 31.2882C25.2211 27.2594 24.6231 25.2091 25.9246 24.5256C26.1708 24.3817 26.9447 23.9501 28.4573 24.8853C31.8342 26.8997 35.4221 33.3386 35.4573 37.4393C35.4573 38.1587 35.8794 38.8062 36.5477 39.094C37.1809 39.3458 37.9548 39.2019 38.4472 38.6983L59.6231 16.7558C60.0452 16.3242 60.6432 16.0724 61.2764 16.0724C61.9095 16.0724 62.4723 16.3242 62.9296 16.7918C63.3517 17.2594 63.598 17.835 63.598 18.4825C63.598 19.1299 63.3517 19.7055 62.8945 20.1731L50.9698 32.2594C50.2663 32.9429 50.2663 34.094 50.9698 34.8134C51.6382 35.5328 52.7638 35.5328 53.4673 34.8134C54.3819 33.9141 56.7387 32.3314 58.005 33.5904C58.8492 34.4537 58.005 36.0364 56.2462 38.3026C55.7186 38.9861 55.7538 39.9213 56.2814 40.5688C56.809 41.2163 57.7236 41.3961 58.4623 41.0004C58.4623 41.0004 58.7437 40.8206 58.7789 40.8206C60.2211 39.9573 61.8392 39.2379 62.8593 40.1731C63.5628 40.8206 63.6683 41.6839 62.1206 44.1299C61.7337 44.7774 61.7337 45.5688 62.1909 46.1803C62.6482 46.7918 63.3869 47.0436 64.0904 46.8278C64.8291 46.612 65.8141 46.4681 66.2362 47.1515C66.5176 47.5472 66.9397 48.1947 65.3216 49.8494L65.2864 49.7055Z" fill="#186CE8"/>
<path d="M25.4321 52.4385C25.1859 52.1507 24.8342 52.0068 24.4472 52.0068C24.0955 52.0068 23.7437 52.1507 23.4975 52.4025L17.9749 57.7982C17.412 58.3378 17.412 59.2371 17.9397 59.8126L33.9799 76.9709C34.2261 77.2586 34.5779 77.4025 34.9296 77.4025C35.4221 77.4025 35.6683 77.2586 35.9146 77.0068L41.4372 71.6112C42 71.0716 42 70.1723 41.4724 69.5968L25.4321 52.4385Z" fill="#80AEF3"/>
<path d="M44.005 67.1152L27.9648 49.9569C27.0503 48.9857 25.8543 48.4461 24.5176 48.4102C23.1809 48.4102 21.9497 48.8778 21 49.813L15.4774 55.2087C14.5628 56.108 14 57.331 14 58.6979C14 60.0289 14.4573 61.3238 15.3719 62.295L31.4121 79.4533C32.3266 80.4245 33.5226 80.9641 34.8593 81.0001H34.9648C36.2312 81.0001 37.4271 80.4965 38.3417 79.5972L43.8643 74.2015C45.8342 72.295 45.9045 69.0936 44.005 67.1152ZM41.402 71.6116L35.8794 77.0073C35.598 77.2591 35.3518 77.403 34.8945 77.403C34.5427 77.403 34.191 77.2231 33.9447 76.9713L17.9045 59.7771C17.3769 59.2015 17.4121 58.3022 17.9397 57.7627L23.4623 52.367C23.7085 52.1152 24.0603 51.9713 24.4121 51.9713C24.7638 51.9713 25.1156 52.1512 25.397 52.403L41.4372 69.5612C41.9648 70.1368 41.9296 71.0361 41.402 71.5756V71.6116Z" fill="#186CE8"/>
<path d="M41.1206 14.0216C40.1357 14.0216 39.3618 13.2302 39.3618 12.223V7.79856C39.3618 6.79137 40.1357 6 41.1206 6C42.1055 6 42.8794 6.79137 42.8794 7.79856V12.223C42.8794 13.2302 42.1055 14.0216 41.1206 14.0216Z" fill="#186CE8"/>
<path d="M47.3819 17.007C46.8894 17.007 46.4322 16.7911 46.0804 16.3954C45.4472 15.64 45.4824 14.5249 46.2211 13.8415L49.4573 10.8918C50.196 10.2444 51.2864 10.2803 51.9548 11.0357C52.5879 11.7911 52.5528 12.9062 51.8141 13.5897L48.5779 16.5393C48.2261 16.8271 47.8392 17.007 47.4171 17.007H47.3819Z" fill="#186CE8"/>
<path d="M34.7186 17.007C34.2965 17.007 33.8744 16.8631 33.5578 16.5393L30.3216 13.5897C29.5829 12.9422 29.5477 11.7911 30.1809 11.0357C30.8141 10.2803 31.9397 10.2444 32.6784 10.8918L35.9146 13.8415C36.6533 14.489 36.6884 15.64 36.0553 16.3954C35.7035 16.7911 35.211 17.007 34.7538 17.007H34.7186Z" fill="#186CE8"/>
</g>
<defs>
<clipPath id="clip0_36_1862">
<rect width="56" height="75" fill="white" transform="translate(14 6)"/>
</clipPath>
</defs>
</svg>
