<svg width="24" height="25" viewBox="0 0 24 25" fill="none" xmlns="http://www.w3.org/2000/svg">
<g clip-path="url(#clip0_307_433)">
<path d="M14.59 2.91617C14.21 2.53617 13.7 2.32617 13.17 2.32617H6C4.9 2.32617 4 3.22617 4 4.32617V20.3262C4 21.4262 4.89 22.3262 5.99 22.3262H18C19.1 22.3262 20 21.4262 20 20.3262V9.15617C20 8.62617 19.79 8.11617 19.41 7.74617L14.59 2.91617ZM15 18.3262H9C8.45 18.3262 8 17.8762 8 17.3262C8 16.7762 8.45 16.3262 9 16.3262H15C15.55 16.3262 16 16.7762 16 17.3262C16 17.8762 15.55 18.3262 15 18.3262ZM15 14.3262H9C8.45 14.3262 8 13.8762 8 13.3262C8 12.7762 8.45 12.3262 9 12.3262H15C15.55 12.3262 16 12.7762 16 13.3262C16 13.8762 15.55 14.3262 15 14.3262ZM13 8.32617V3.82617L18.5 9.32617H14C13.45 9.32617 13 8.87617 13 8.32617Z" fill="white"/>
</g>
<defs>
<clipPath id="clip0_307_433">
<rect width="24" height="24" fill="white" transform="translate(0 0.326172)"/>
</clipPath>
</defs>
</svg>
