<svg width="88" height="88" viewBox="0 0 88 88" fill="none" xmlns="http://www.w3.org/2000/svg">
<path d="M39.6 58.2997L56.7233 45.4663C57.7133 44.733 57.7133 43.2663 56.7233 42.533L39.6 29.6997C38.39 28.783 36.6666 29.663 36.6666 31.1663V56.833C36.6666 58.3363 38.39 59.2163 39.6 58.2997ZM44 7.33301C23.76 7.33301 7.33331 23.7597 7.33331 43.9997C7.33331 64.2397 23.76 80.6663 44 80.6663C64.24 80.6663 80.6666 64.2397 80.6666 43.9997C80.6666 23.7597 64.24 7.33301 44 7.33301ZM44 73.333C27.83 73.333 14.6666 60.1697 14.6666 43.9997C14.6666 27.8297 27.83 14.6663 44 14.6663C60.17 14.6663 73.3333 27.8297 73.3333 43.9997C73.3333 60.1697 60.17 73.333 44 73.333Z" fill="white"/>
</svg>
